<svg width="38" height="38" viewBox="0 0 38 38" fill="none" xmlns="http://www.w3.org/2000/svg">
<path fill-rule="evenodd" clip-rule="evenodd" d="M18.6283 37.4071C28.7942 37.4071 37.0354 29.1659 37.0354 19C37.0354 8.83403 28.7942 0.592896 18.6283 0.592896C8.46232 0.592896 0.221191 8.83403 0.221191 19C0.221191 29.1659 8.46232 37.4071 18.6283 37.4071ZM21.6994 10.9487C23.234 11.2081 24.7014 11.6645 26.0705 12.2819C26.0824 12.2866 26.0923 12.2955 26.0982 12.3069C28.524 15.8163 29.7212 19.7766 29.2738 24.3347C29.2728 24.3443 29.2697 24.3536 29.2647 24.3619C29.2598 24.3703 29.2531 24.3775 29.2452 24.383C27.6181 25.5684 25.8024 26.4702 23.8747 27.0504C23.8611 27.0544 23.8466 27.0542 23.8331 27.0497C23.8197 27.0452 23.8079 27.0367 23.7995 27.0253C23.3942 26.4697 23.0255 25.8845 22.7034 25.2697C22.699 25.2613 22.6965 25.252 22.696 25.2424C22.6955 25.2329 22.697 25.2234 22.7005 25.2145C22.7039 25.2056 22.7093 25.1975 22.7161 25.1909C22.7229 25.1842 22.7311 25.1791 22.7401 25.1758C23.3244 24.9593 23.8809 24.6989 24.416 24.3911C24.4256 24.3854 24.4335 24.3775 24.4393 24.3679C24.445 24.3584 24.4482 24.3477 24.4488 24.3366C24.4493 24.3255 24.4471 24.3145 24.4423 24.3045C24.4375 24.2944 24.4303 24.2858 24.4214 24.2792C24.3077 24.196 24.1959 24.1092 24.0885 24.0215C24.0787 24.0137 24.0668 24.0088 24.0543 24.0074C24.0418 24.0059 24.0292 24.008 24.0178 24.0135C20.5452 25.5919 16.7396 25.5919 13.2258 24.0135C13.2145 24.0084 13.2019 24.0065 13.1896 24.0081C13.1773 24.0096 13.1657 24.0146 13.156 24.0224C13.0486 24.1092 12.9359 24.196 12.8231 24.2792C12.8143 24.2859 12.8072 24.2947 12.8026 24.3048C12.7979 24.3149 12.7959 24.326 12.7966 24.3371C12.7973 24.3482 12.8007 24.3589 12.8066 24.3683C12.8125 24.3777 12.8206 24.3856 12.8303 24.3911C13.3672 24.6963 13.9273 24.959 14.5053 25.1767C14.5429 25.191 14.5608 25.234 14.542 25.2697C14.2271 25.8854 13.8584 26.4714 13.445 27.0262C13.4363 27.0372 13.4244 27.0453 13.411 27.0494C13.3976 27.0536 13.3833 27.0536 13.3698 27.0495C11.4455 26.4677 9.63266 25.5663 8.00738 24.383C7.99966 24.3771 7.99322 24.3697 7.98845 24.3613C7.98368 24.3528 7.98068 24.3435 7.97964 24.3338C7.60472 20.3914 8.36798 16.3988 11.1526 12.3052C11.1594 12.2944 11.1694 12.2859 11.1812 12.281C12.5511 11.6627 14.0186 11.2064 15.5522 10.9469C15.5661 10.9447 15.5803 10.9467 15.5929 10.9528C15.6055 10.9589 15.616 10.9687 15.6229 10.9809C15.8272 11.3372 16.0116 11.7046 16.175 12.0815C17.8025 11.8383 19.4572 11.8383 21.0847 12.0815C21.2315 11.7414 21.4408 11.311 21.6287 10.9809C21.6357 10.9688 21.6463 10.9593 21.659 10.9535C21.6716 10.9477 21.6858 10.946 21.6994 10.9487ZM13.1372 19.8035C13.1372 20.9766 14.0096 21.9331 15.0673 21.9331C16.1419 21.9331 16.9973 20.9774 16.9973 19.8035C17.0143 18.6376 16.15 17.6739 15.0673 17.6739C13.9926 17.6739 13.1372 18.6295 13.1372 19.8035ZM20.2731 19.8035C20.2731 20.9766 21.1447 21.9331 22.2032 21.9331C23.2868 21.9331 24.1333 20.9774 24.1333 19.8035C24.1503 18.6376 23.2859 17.6739 22.2032 17.6739C21.1277 17.6739 20.2731 18.6295 20.2731 19.8035Z" fill="white"/>
</svg>
