<svg width="37" height="38" viewBox="0 0 37 38" fill="none" xmlns="http://www.w3.org/2000/svg">
<path fill-rule="evenodd" clip-rule="evenodd" d="M18.4071 37.4071C28.573 37.4071 36.8142 29.1659 36.8142 19C36.8142 8.83403 28.573 0.592896 18.4071 0.592896C8.24113 0.592896 0 8.83403 0 19C0 29.1659 8.24113 37.4071 18.4071 37.4071ZM13.9948 29.7275C15.1328 29.7773 15.4855 29.7927 18.4136 29.7927C21.3334 29.7927 21.7071 29.7927 22.8471 29.727C23.7388 29.7091 24.621 29.5396 25.4566 29.2269C26.1699 28.9497 26.8177 28.5273 27.359 27.9864C27.9003 27.4455 28.3232 26.798 28.6009 26.085C28.9149 25.2486 29.0844 24.365 29.1023 23.4719C29.1524 22.3414 29.1691 21.9594 29.1691 19.0467C29.1691 16.134 29.1691 15.7604 29.1023 14.6168C29.0891 13.7131 28.9184 12.8178 28.5997 11.9703C28.3227 11.257 27.9002 10.6093 27.359 10.0683C26.8179 9.52737 26.17 9.10508 25.4566 8.82836C24.621 8.51322 23.7352 8.34371 22.8423 8.327L22.8226 8.32614C21.7102 8.27787 21.3567 8.26254 18.4136 8.26254C15.5021 8.26254 15.1272 8.26254 13.9872 8.327C13.0959 8.34388 12.2141 8.51346 11.3801 8.82836C10.6666 9.10476 10.0185 9.52693 9.47729 10.0679C8.9361 10.6089 8.51368 11.2568 8.23701 11.9703C7.9238 12.8047 7.75467 13.6863 7.73684 14.5774L7.73679 14.5784C7.6855 15.7176 7.66999 16.0621 7.66999 19.0061C7.66999 21.92 7.66999 22.2949 7.73684 23.4384C7.75429 24.3307 7.92343 25.2136 8.23701 26.0491C8.514 26.7617 8.93613 27.4089 9.47661 27.9495C10.0171 28.4902 10.6641 28.9126 11.3765 29.1898C12.2091 29.516 13.0912 29.6977 13.9848 29.727L13.9948 29.7275ZM14.0272 10.2171C15.1531 10.1664 15.468 10.1522 18.373 10.1522C21.2785 10.1522 21.5805 10.1522 22.7349 10.2179C23.4153 10.2262 24.0898 10.3504 24.7284 10.5891C25.1919 10.7694 25.6128 11.0442 25.9642 11.396C26.3157 11.7479 26.59 12.1691 26.7697 12.6328C27.0046 13.2709 27.1302 13.9441 27.141 14.6239C27.1923 15.7639 27.2054 16.0707 27.2054 18.987C27.2054 21.9033 27.2054 22.2077 27.1541 23.3489H27.141C27.1338 24.0365 27.0084 24.7193 26.7697 25.3639C26.5896 25.827 26.3151 26.2475 25.9637 26.5987C25.6122 26.9499 25.1916 27.2242 24.7284 27.404C24.0902 27.6414 23.4158 27.767 22.7349 27.7753L22.729 27.7756C21.6034 27.8279 21.2961 27.8421 18.373 27.8421C15.4698 27.8421 15.1654 27.8421 14.0099 27.7753C13.3293 27.7679 12.6551 27.6423 12.0176 27.404C11.0757 27.0435 10.3308 26.301 9.96554 25.3616C9.73037 24.7229 9.60503 24.0484 9.59429 23.368C9.54176 22.2185 9.53102 21.8711 9.53102 19.0061C9.53102 16.1065 9.53102 15.8033 9.59429 14.6466C9.60145 13.959 9.72679 13.2774 9.96554 12.6328C10.1456 12.1678 10.4212 11.7457 10.7744 11.3937C11.1277 11.0417 11.5507 10.7676 12.0164 10.5891C12.6548 10.3523 13.3291 10.2268 14.0099 10.2179L14.0272 10.2171ZM15.3467 23.5917C16.2547 24.1976 17.322 24.5207 18.4136 24.52C19.8761 24.5168 21.2778 23.9341 22.3115 22.8995C23.3452 21.8649 23.9267 20.4627 23.9286 19.0002C23.9284 17.9086 23.6044 16.8416 22.9977 15.9341C22.391 15.0267 21.5289 14.3195 20.5202 13.9021C19.5116 13.4847 18.4018 13.3758 17.3313 13.5892C16.2608 13.8025 15.2776 14.3286 14.5061 15.1008C13.7345 15.873 13.2093 16.8566 12.9969 17.9274C12.7845 18.9981 12.8943 20.1077 13.3126 21.116C13.7309 22.1243 14.4388 22.9858 15.3467 23.5917ZM16.424 16.0201C17.0129 15.6266 17.7053 15.4166 18.4136 15.4166C19.3627 15.4188 20.2723 15.7968 20.9434 16.4679C21.6146 17.139 21.9926 18.0487 21.9948 18.9978C21.9948 19.7061 21.7847 20.3984 21.3912 20.9874C20.9977 21.5763 20.4384 22.0353 19.784 22.3064C19.1297 22.5774 18.4096 22.6483 17.7149 22.5102C17.0202 22.372 16.3821 22.0309 15.8813 21.5301C15.3805 21.0292 15.0394 20.3911 14.9012 19.6964C14.763 19.0017 14.8339 18.2817 15.105 17.6273C15.376 16.9729 15.835 16.4136 16.424 16.0201ZM23.6514 14.4657C23.8073 14.5309 23.9745 14.5648 24.1435 14.5654C24.4848 14.5667 24.8126 14.4323 25.0548 14.1919C25.2971 13.9515 25.4338 13.6247 25.4351 13.2834C25.4364 12.9421 25.302 12.6143 25.0616 12.372C24.8211 12.1298 24.4943 11.993 24.153 11.9918C23.8117 11.9905 23.4839 12.1249 23.2417 12.3653C22.9995 12.6057 22.8627 12.9325 22.8614 13.2738C22.8602 13.6151 22.9945 13.9429 23.235 14.1852C23.354 14.3051 23.4955 14.4004 23.6514 14.4657Z" fill="white"/>
</svg>
