<svg width="37" height="36" viewBox="0 0 37 36" fill="none" xmlns="http://www.w3.org/2000/svg">
<path d="M18.5 0C8.27965 0 0 8.05703 0 18C0 27.943 8.28084 36 18.5 36C28.7204 36 37 27.943 37 18C37 8.05703 28.7192 0 18.5 0ZM27.5865 12.3317L24.5501 26.2533C24.3257 27.2404 23.7218 27.4796 22.8791 27.0151L18.2541 23.6985L16.0234 25.7888C15.7775 26.028 15.5686 26.2312 15.0912 26.2312L15.4195 21.6511L23.9903 14.1166C24.3639 13.7973 23.908 13.6161 23.415 13.9355L12.8223 20.4236L8.25697 19.037C7.26513 18.7328 7.24245 18.072 8.46584 17.6075L26.3022 10.915C27.1306 10.6246 27.8538 11.1112 27.5853 12.3306L27.5865 12.3317Z" fill="white"/>
</svg>
